<?xml version="1.0" standalone="no"?>
<!DOCTYPE svg PUBLIC "-//W3C//DTD SVG 20010904//EN"
 "http://www.w3.org/TR/2001/REC-SVG-20010904/DTD/svg10.dtd">
<svg version="1.0" xmlns="http://www.w3.org/2000/svg"
 width="2752.000000pt" height="2752.000000pt" viewBox="0 0 2752.000000 2752.000000"
 preserveAspectRatio="xMidYMid meet">
<metadata>
Created by potrace 1.11, written by Peter Selinger 2001-2013
</metadata>
<g transform="translate(0.000000,2752.000000) scale(0.100000,-0.100000)"
fill="#000000" stroke="none">
<path d="M10 13760 l0 -9170 13755 0 13755 0 0 9170 0 9170 -13755 0 -13755 0
0 -9170z m10705 4649 c54 -27 89 -70 105 -128 6 -24 10 -1067 10 -3066 0
-2865 1 -3032 18 -3065 36 -73 -7 -70 880 -70 435 0 792 -2 792 -5 0 -7 -1691
-2938 -1702 -2950 -5 -5 6 26 25 70 256 594 667 1554 667 1559 0 3 -453 6
-1006 6 -766 0 -1016 3 -1048 12 -52 16 -108 72 -124 124 -16 54 -18 7338 -2
7396 20 71 79 121 163 138 23 4 296 8 607 7 l566 -2 49 -26z m5526 -461 c-5
-13 -216 -506 -470 -1096 l-461 -1073 0 -2635 c0 -2907 -5 -2675 64 -2708 31
-15 152 -16 1344 -16 1151 0 1315 -2 1353 -15 52 -19 84 -47 112 -100 22 -39
22 -50 25 -527 2 -316 -1 -501 -8 -526 -16 -62 -51 -105 -105 -132 l-50 -25
-2035 0 c-1672 0 -2042 2 -2073 13 -50 18 -93 56 -120 106 l-22 41 -3 2233 -2
2234 1226 2124 c674 1168 1228 2124 1230 2124 2 0 0 -10 -5 -22z"/>
</g>
</svg>
